<?xml version="1.0" encoding="UTF-8" standalone="no"?>
<!-- Created with Inkscape (http://www.inkscape.org/) -->

<svg
   xmlns:dc="http://purl.org/dc/elements/1.1/"
   xmlns:cc="http://creativecommons.org/ns#"
   xmlns:rdf="http://www.w3.org/1999/02/22-rdf-syntax-ns#"
   xmlns:svg="http://www.w3.org/2000/svg"
   xmlns="http://www.w3.org/2000/svg"
   xmlns:sodipodi="http://sodipodi.sourceforge.net/DTD/sodipodi-0.dtd"
   xmlns:inkscape="http://www.inkscape.org/namespaces/inkscape"
   width="744.09448819"
   height="1052.3622047"
   id="svg2"
   version="1.1"
   inkscape:version="0.48.4 r9939"
   sodipodi:docname="map_pointer_icon.svg">
  <defs
     id="defs4" />
  <sodipodi:namedview
     id="base"
     pagecolor="#ffffff"
     bordercolor="#666666"
     borderopacity="1.0"
     inkscape:pageopacity="0.0"
     inkscape:pageshadow="2"
     inkscape:zoom="0.7"
     inkscape:cx="338.78719"
     inkscape:cy="372.9896"
     inkscape:document-units="px"
     inkscape:current-layer="layer1"
     showgrid="true"
     inkscape:window-width="1301"
     inkscape:window-height="744"
     inkscape:window-x="65"
     inkscape:window-y="24"
     inkscape:window-maximized="1">
    <inkscape:grid
       type="xygrid"
       id="grid2985" />
  </sodipodi:namedview>
  <metadata
     id="metadata7">
    <rdf:RDF>
      <cc:Work
         rdf:about="">
        <dc:format>image/svg+xml</dc:format>
        <dc:type
           rdf:resource="http://purl.org/dc/dcmitype/StillImage" />
        <dc:title></dc:title>
      </cc:Work>
    </rdf:RDF>
  </metadata>
  <g
     inkscape:label="Layer 1"
     inkscape:groupmode="layer"
     id="layer1">
    <path
       sodipodi:type="arc"
       style="fill:#ffffff;stroke:#1a1a1a"
       id="path3001"
       sodipodi:cx="210"
       sodipodi:cy="232.36218"
       sodipodi:rx="190"
       sodipodi:ry="180"
       d="m 400,232.36218 a 190,180 0 1 1 -380,0 190,180 0 1 1 380,0 z"
       transform="matrix(1.9216498,0,0,1.5836213,-32.844525,39.322911)" />
    <path
       style="fill:none;stroke:#000000;stroke-width:1.74446714px;stroke-linecap:butt;stroke-linejoin:miter;stroke-opacity:1"
       d="m 371.6578,125.28341 c 0,0 0,0 0,870.99167 0,0 -365.1134641,-205.87077 -365.1134641,-585.93987 730.2269241,0 730.2269241,0 730.2269241,0 0,364.23289 -365.11346,585.93987 -365.11346,585.93987"
       id="path3005"
       inkscape:connector-curvature="0" />
    <path
       sodipodi:type="arc"
       style="fill:#ffffff;stroke:#1a1a1a"
       id="path3009"
       sodipodi:cx="960.48236"
       sodipodi:cy="230.93062"
       sodipodi:rx="130.48238"
       sodipodi:ry="138.56844"
       d="m 1090.9647,230.93062 a 130.48238,138.56844 0 1 1 -260.96472,0 130.48238,138.56844 0 1 1 260.96472,0 z"
       transform="matrix(1.9216498,0,0,1.5836213,-1473.1848,18.526828)" />
    <path
       style="fill:#008000;stroke:#00ff00;stroke-width:1.76217794"
       d="M 354.43511,983.25166 C 320.9882,962.03085 268.48222,920.57963 234.97785,888.94529 110.83702,771.73331 34.158905,633.82379 14.602832,492.58958 11.979876,473.64654 12.939836,468.9403 16.73523,482.13546 c 5.765949,20.04605 23.049613,51.79604 40.050448,73.57248 50.270492,64.39159 129.090452,110.03592 222.914802,129.08909 21.50918,4.36793 54.66481,8.18037 71.39636,8.20962 7.70805,0.0127 15.1111,0.59816 16.45121,1.29933 1.93191,1.01079 2.33395,32.02354 1.94115,149.72874 l -0.4954,148.4539 -14.55869,-9.23696 z"
       id="path3020"
       inkscape:connector-curvature="0" />
    <path
       style="fill:#008000;stroke:#00ff00;stroke-width:1.76217794"
       d="m 373.84669,842.74989 0,-149.76774 15.47052,0 c 8.50879,0 24.88732,-1.13329 36.39673,-2.51842 80.16893,-9.64813 152.6421,-38.84254 208.19018,-83.86533 45.12439,-36.57418 74.07614,-76.53913 91.55056,-126.37623 4.1215,-11.75447 5.35541,-13.90126 5.44698,-9.47672 0.22354,10.80242 -8.59116,57.69242 -15.76078,83.83983 -32.66551,119.13019 -107.69706,236.22406 -217.83929,339.95895 -34.01866,32.03967 -90.34195,76.99261 -120.05786,95.821 -3.22968,2.04635 -3.39704,-5.22591 -3.39704,-147.61534 z"
       id="path3022"
       inkscape:connector-curvature="0" />
    <path
       style="fill:#800080;stroke:#ff00ff;stroke-width:1.76217794"
       d="M 354.43511,690.31612 C 218.96776,685.48617 96.280793,620.3123 40.137888,523.35495 22.350041,492.63579 11.53021,459.18296 9.5011019,428.63188 l -1.142171,-17.19677 56.5315361,0 56.531533,0 0.80027,3.59934 c 12.90974,58.06415 34.54571,94.2101 77.86065,130.07729 42.35892,35.07554 95.98202,55.6649 154.69102,59.39583 l 15.19045,0.96533 0,42.95479 c 0,23.62512 -0.65515,42.81606 -1.45588,42.64653 -0.80072,-0.16951 -7.13376,-0.51067 -14.0734,-0.7581 l 0,0 z"
       id="path3024"
       inkscape:connector-curvature="0" />
    <path
       style="fill:#800080;stroke:#ff00ff;stroke-width:1.76217794"
       d="m 373.8462,647.79065 4.9e-4,-42.79195 9.22052,-0.006 c 25.25782,-0.0176 71.20239,-9.8388 97.87614,-20.92216 71.08136,-29.53544 125.25475,-90.57859 138.91016,-156.52557 l 3.33572,-16.10946 54.88597,0 54.88598,0 0,9.80724 c 0,21.54691 -9.3475,57.08467 -22.27449,84.68416 -36.1318,77.14229 -120.55639,141.92851 -219.39985,168.36423 -34.86787,9.32542 -62.09306,13.67037 -95.60259,15.25751 l -21.83855,1.03434 5e-4,-42.79195 z"
       id="path3026"
       inkscape:connector-curvature="0" />
    <path
       style="fill:#800080;stroke:#ff00ff;stroke-width:1.76217794"
       d="m 8.1348279,395.0382 c 1.54322,-19.47556 6.2028361,-43.37668 11.4611621,-58.78894 37.540082,-110.03087 151.2839,-190.29486 296.01593,-208.8854 27.22957,-3.49757 83.17022,-3.48901 110.50705,0.0169 130.03093,16.67645 237.44904,84.67029 283.79975,179.64042 13.13265,26.90806 23.00682,64.6462 23.02961,88.017 l 0.0134,13.19752 -54.35246,0 -54.35246,0 0,-23.03667 c 0,-79.14068 -42.68611,-146.80557 -119.3813,-189.24011 -33.02543,-18.27259 -86.19384,-32.44589 -121.8077,-32.47074 l -9.22052,-0.006 0,-19.19639 c 0,-11.73113 -0.75488,-19.19638 -1.94115,-19.19638 -1.18493,0 -1.94116,7.38623 -1.94116,18.95928 l 0,18.95929 -15.19045,0.96535 c -58.88619,3.74219 -112.20422,24.21442 -154.69102,59.39583 -28.00436,23.18917 -46.68007,46.65216 -61.09267,76.75309 -13.05481,27.26515 -21.20389,69.62152 -18.41513,95.71621 l 1.32494,12.39767 -57.405486,0 -57.4054831,0 1.045743,-13.19752 0,0 z"
       id="path3028"
       inkscape:connector-curvature="0" />
    <path
       style="fill:#ffff00;stroke:#ff00ff;stroke-width:1.76217794"
       d="M 334.97333,599.53622 C 282.98029,591.97809 230.96181,568.59733 196.12261,537.12694 100.01311,450.31089 99.967053,317.89517 196.01634,231.4084 c 35.93041,-32.35326 87.73436,-55.35791 140.78775,-62.51979 22.45012,-3.03063 61.69676,-2.18122 83.63054,1.81001 42.69795,7.76961 79.35134,23.33764 112.17298,47.64393 42.56653,31.52293 70.40969,72.07437 83.29067,121.30647 4.97891,19.02981 4.97891,70.15262 0,89.18243 -12.86904,49.18648 -39.68436,88.33981 -82.72535,120.7881 -32.3407,24.38143 -69.47479,40.25166 -112.7383,48.18166 -19.47088,3.56893 -66.30487,4.51975 -85.4612,1.73501 l 0,0 z"
       id="path3030"
       inkscape:connector-curvature="0" />
    <path
       style="fill:#ffff00;stroke:#ff6600;stroke-width:1.76217794"
       d="M 334.97333,599.53622 C 282.98029,591.97809 230.96181,568.59733 196.12261,537.12694 100.01311,450.31089 99.967053,317.89517 196.01634,231.4084 c 35.93041,-32.35326 87.73436,-55.35791 140.78775,-62.51979 22.45012,-3.03063 61.69676,-2.18122 83.63054,1.81001 42.69795,7.76961 79.35134,23.33764 112.17298,47.64393 42.56653,31.52293 70.40969,72.07437 83.29067,121.30647 4.97891,19.02981 4.97891,70.15262 0,89.18243 -12.86904,49.18648 -39.68436,88.33981 -82.72535,120.7881 -32.3407,24.38143 -69.47479,40.25166 -112.7383,48.18166 -19.47088,3.56893 -66.30487,4.51975 -85.4612,1.73501 l 0,0 z"
       id="path3032"
       inkscape:connector-curvature="0" />
    <path
       sodipodi:type="arc"
       style="fill:#ffff00;stroke:#808000"
       id="path3053"
       sodipodi:cx="380"
       sodipodi:cy="312.36218"
       sodipodi:rx="160"
       sodipodi:ry="140"
       d="m 540,312.36218 a 160,140 0 1 1 -320,0 160,140 0 1 1 320,0 z"
       transform="translate(-5.7142857,38.571429)" />
    <path
       style="fill:#800080;stroke:#800080;stroke-width:1.42857146"
       d="m 340.94385,598.47515 c -33.00727,-3.47335 -73.8352,-17.11507 -105.3647,-35.20523 -45.78866,-26.27137 -85.00008,-73.14243 -99.99391,-119.52692 -7.06875,-21.8677 -8.65519,-32.77607 -8.65519,-59.51328 0,-26.8018 1.77067,-38.93824 8.75383,-60 16.99736,-51.26539 60.69209,-100.01145 113.25256,-126.34514 33.95021,-17.00963 72.08822,-27.06653 109.42218,-28.85436 67.62217,-3.23826 130.3971,16.45901 180.71429,56.70383 33.70684,26.95948 56.59424,59.25704 70.54067,99.54347 6.95654,20.09501 8.52986,33.98651 7.64237,67.47744 -0.8087,30.51824 -1.53466,34.43607 -11.08637,59.83109 -25.76414,68.49877 -92.41396,122.70745 -173.12617,140.80973 -24.83469,5.56995 -65.90995,7.8353 -92.09956,5.07937 l 0,0 z m 77.90643,-111.9801 c 57.70598,-16.0412 96.82636,-51.59343 111.79956,-101.60239 4.19154,-13.99934 5.30463,-43.17211 2.21691,-58.10273 -5.6785,-27.45833 -19.27581,-51.10028 -41.44274,-72.05741 -32.81915,-31.02795 -76.75682,-46.58423 -125.20825,-44.33037 -69.59355,3.23734 -126.5527,42.58959 -146.51172,101.22284 -7.29139,21.41977 -8.15838,49.15824 -2.22563,71.2064 12.36392,45.94859 49.49085,83.06833 100.01475,99.9954 21.32602,7.14487 32.11465,8.53327 61.57975,7.92477 23.02951,-0.4756 28.1454,-1.02304 39.77737,-4.25651 l 0,0 z"
       id="path3058"
       inkscape:connector-curvature="0" />
    <path
       style="fill:#800080;stroke:#800080;stroke-width:1.42857146"
       d=""
       id="path3060"
       inkscape:connector-curvature="0" />
    <path
       style="fill:#800080;stroke:#800080;stroke-width:1.42857146"
       d=""
       id="path3062"
       inkscape:connector-curvature="0" />
    <path
       style="fill:#800080;stroke:#800080;stroke-width:1.42857146"
       d=""
       id="path3064"
       inkscape:connector-curvature="0" />
    <path
       style="fill:#800080;stroke:#800080;stroke-width:1.42857146"
       d=""
       id="path3066"
       inkscape:connector-curvature="0" />
    <path
       style="fill:#800080;stroke:#800080;stroke-width:1.42857146"
       d="m 9.0729079,403.12082 c 0,-15.4476 7.0555501,-51.6974 13.5477781,-69.60539 34.147234,-94.1908 124.670234,-166.88846 242.858074,-195.03568 28.98585,-6.90317 51.43433,-10.09676 78.23263,-11.12961 l 25.36357,-0.97756 -10e-4,17.38629 -10e-4,17.3863 -9.64286,0.8995 c -48.11281,4.48807 -74.7531,11.13355 -108.11847,26.97042 -27.32449,12.96955 -48.81503,28.53583 -72.4349,52.46687 -29.30609,29.69217 -46.46367,61.37253 -55.78896,103.01066 -2.73038,12.19136 -3.30053,18.87047 -3.30053,38.66491 l 0,23.92782 -55.35714,7.5e-4 -55.3571421,7.6e-4 0,-3.96604 z"
       id="path3068"
       inkscape:connector-curvature="0" />
    <path
       style="fill:#800080;stroke:#800080;stroke-width:1.42857146"
       d="m 355.50148,688.9641 c -84.0484,-4.31111 -158.83702,-27.83764 -220,-69.20621 C 113.87621,605.13129 99.916023,593.38645 81.8771,574.64316 49.145019,540.63299 26.866313,501.81077 16.370707,460.49363 13.270456,448.28914 10.501479,428.67089 10.501479,418.91005 l 0,-6.1089 54.846116,0 54.846115,0 2.48647,10.35714 c 4.66432,19.42872 9.52544,33.20261 17.77218,50.35714 9.93985,20.67646 18.73615,33.32801 35.2032,50.63206 35.94483,37.77186 81.48263,63.56427 132.38053,74.97974 13.9149,3.12086 49.02743,7.88616 58.53682,7.94433 2.1896,0.0129 2.49953,1.5673 2.49624,12.5153 -0.01,31.18414 -1.93007,70.34817 -3.43727,70.08703 -0.85744,-0.14857 -5.41612,-0.46797 -10.1304,-0.70979 l 0,0 z"
       id="path3070"
       inkscape:connector-curvature="0" />
    <path
       style="fill:#800080;stroke:#800080;stroke-width:1.42857146"
       d="m 374.78719,648.16059 0,-40.77041 13.21429,-0.9574 c 14.99454,-1.08638 40.58575,-5.32008 57.5,-9.51253 87.34186,-21.64905 156.77713,-87.81969 175.18366,-166.94706 1.5573,-6.69462 3.16065,-13.29704 3.56303,-14.67204 0.67992,-2.32356 4.51615,-2.5 54.35541,-2.5 l 53.62384,0 -1.00127,11.78571 c -1.88754,22.21798 -8.33866,47.23557 -18.5553,71.95795 -11.81803,28.59745 -31.16758,56.7841 -56.26486,81.96144 -64.88542,65.09243 -158.41739,104.16023 -261.97594,109.42594 l -19.64286,0.9988 0,-40.7704 z"
       id="path3072"
       inkscape:connector-curvature="0" />
    <path
       style="fill:#800080;stroke:#800080;stroke-width:1.42857146"
       d="m 625.76641,384.58686 c -1.49762,-37.56748 -7.04926,-61.30374 -20.97532,-89.68083 -10.76621,-21.93828 -25.56841,-41.90152 -44.46022,-59.96203 -35.52369,-33.96049 -76.67956,-55.18305 -129.82939,-66.94819 -13.47337,-2.98244 -42.14638,-6.54324 -53.21429,-6.60849 -2.24298,-0.0132 -2.5,-1.79936 -2.5,-17.37376 l 0,-17.35901 24.64286,0.86827 c 73.43027,2.58726 153.83702,29.55195 213.14376,71.4785 71.08667,50.25431 113.24314,119.19288 118.7285,194.15697 l 1.0192,13.92857 -52.82907,0 -52.82907,0 -0.89696,-22.5 0,0 z"
       id="path3074"
       inkscape:connector-curvature="0" />
    <path
       style="fill:#800080;stroke:#800080;stroke-width:1.42857146"
       d="M 351.21576,598.86325 C 319.08902,596.11606 279.93585,584.78066 249.0027,569.27112 199.28897,544.34519 159.005,500.96028 139.24936,451.06929 c -15.8455,-40.0163 -15.8455,-93.66284 0,-133.67914 12.4681,-31.487 33.94003,-61.75241 59.85736,-84.37095 38.39172,-33.50517 87.89516,-55.06915 141.63017,-61.69489 17.96892,-2.21564 61.96253,-1.04515 79.0503,2.1032 39.60922,7.29784 76.60098,22.78068 108.49888,45.41201 17.08851,12.12418 41.1392,35.92864 52.62818,52.08937 15.02302,21.13182 28.3035,50.72941 33.03022,73.61289 2.61847,12.67682 3.21332,59.1657 0.95568,74.68794 -2.78551,19.15161 -14.89378,49.20514 -28.00541,69.51128 -35.23092,54.56253 -98.98543,95.02106 -167.10755,106.04622 -20.76818,3.36121 -53.89973,5.33061 -68.57143,4.07603 z m 70,-112.4404 c 52.69083,-15.55057 90.36652,-48.069 106.86542,-92.2371 5.20411,-13.93162 6.86526,-26.92779 6.29394,-49.24175 -0.46053,-17.98744 -0.9708,-21.34418 -5.0709,-33.35798 -9.9581,-29.17843 -27.04225,-51.04104 -57.37417,-73.42174 -12.94717,-9.55319 -38.30257,-20.19123 -59.28571,-24.87373 -12.66445,-2.82613 -49.49369,-3.90787 -63.57143,-1.86719 -64.66863,9.37421 -114.57081,48.87939 -130.76528,103.52064 -4.51182,15.22318 -6.14211,42.63562 -3.44092,57.85715 8.66501,48.82847 45.32737,89.33268 98.79751,109.15054 21.45329,7.95131 31.6727,9.31923 65.40869,8.75524 26.69525,-0.44627 30.42298,-0.82523 42.14285,-4.28408 l 0,0 z"
       id="path3076"
       inkscape:connector-curvature="0" />
    <path
       style="fill:#800080;stroke:#800080;stroke-width:1.42857146"
       d=""
       id="path3078"
       inkscape:connector-curvature="0" />
    <path
       style="fill:#ffff00;stroke:#800080;stroke-width:1.42857146"
       d="m 352.64434,488.33323 c -47.93401,-5.98863 -92.03442,-32.14084 -116.00429,-68.7923 -14.55909,-22.26177 -20.51983,-42.47937 -20.51923,-69.59693 0.001,-58.34114 41.75814,-109.52501 105.80923,-129.6967 19.33516,-6.08924 24.40585,-6.73244 52.85714,-6.70478 25.40889,0.0247 29.12276,0.3567 42.25777,3.77752 93.36255,24.3149 140.90956,112.08844 102.40996,189.05254 -18.68153,37.346 -57.11864,66.81891 -101.57023,77.88228 -11.09063,2.7603 -38.63701,5.81729 -49.52607,5.49622 -3.14286,-0.0927 -10.21428,-0.7307 -15.71428,-1.41785 l 0,0 z"
       id="path3080"
       inkscape:connector-curvature="0" />
  </g>
</svg>
